<?xml version="1.0" encoding="utf-8"?>
<!-- Generator: Adobe Illustrator 23.0.3, SVG Export Plug-In . SVG Version: 6.00 Build 0)  -->
<svg version="1.1" id="Layer_1" xmlns="http://www.w3.org/2000/svg" xmlns:xlink="http://www.w3.org/1999/xlink" x="0px" y="0px"
	 viewBox="0 0 907.6 265.4" style="enable-background:new 0 0 907.6 265.4;" xml:space="preserve">
<style type="text/css">
	.st0{fill:#282828;}
	.st1{enable-background:new    ;}
	.st2{fill:#2CDD8C;}
	.st3{fill:#222222;}
</style>
<title>Acatenango logo home</title>
<path class="st0" d="M254.3,152c-7.9-3.8-15.5-6.6-22.3-10.8c-12-7.3-23.5-15.2-35.1-23.1c-4.5-3-8.1-3.2-11.9,1
	c-1.1,1.2-3.6,2.6-4.8,2.1c-5.3-2.2-8,0.9-11.9,5.1l33.6,33.3l-0.4,0.8c-3.1-2.2-6.6-4.1-9.4-6.6c-16.4-14.9-32.8-29.9-49.1-45
	c-8.4-7.9-10.6-7.9-19.2,0.5c-2.5,2.4-5.6,5.6-8.6,5.9c-4.6,0.4-10.1-0.3-14-2.7c-5.3-3.1-8.2-2.6-12.2,1.8
	c-18.5,20.8-47.2,34.4-74.8,36C4.5,121.2,20.1,65,58.3,35.2c39.1-30.5,95.5-34.1,139.1-8.5C235.6,49.1,264.7,101.2,254.3,152z"/>
<path class="st0" d="M31.2,198.4c55.6-18.1,146.6-14.6,206.6-1.8c-22.2,33.5-52.7,53.2-92.4,56.6C97.6,257.2,59.8,238,31.2,198.4z"
	/>
<path class="st0" d="M27.8,192.1l-4.5-8.6c74.2-21.7,147.7-17.1,221.8-2.5c-0.9,6.6-2.9,9.1-10.6,8.2c-31.1-3.9-62.3-7.9-93.6-9.6
	C103,177.6,65.3,181.2,27.8,192.1z"/>
<g class="st1">
	<path class="st2" d="M375.4,119.6H368l-20.6-54.2h7.1l13.8,37.4l3.4,10.8l3.4-10.7l13.8-37.5h7.1L375.4,119.6z"/>
</g>
<g class="st1">
	<path class="st2" d="M434,83.4c3.5,3.8,5.3,9,5.3,15.7s-1.8,11.9-5.3,15.7s-8.4,5.7-14.6,5.7c-6.2,0-11-1.9-14.6-5.7
		c-3.5-3.8-5.3-9-5.3-15.7s1.8-11.9,5.3-15.7c3.5-3.8,8.4-5.7,14.6-5.7C425.6,77.7,430.5,79.6,434,83.4z M409.7,87.5
		c-2.4,2.8-3.5,6.6-3.5,11.5s1.2,8.7,3.5,11.5c2.4,2.8,5.6,4.2,9.8,4.2c4.2,0,7.4-1.4,9.8-4.2c2.4-2.8,3.5-6.6,3.5-11.5
		s-1.2-8.7-3.5-11.5c-2.4-2.8-5.6-4.2-9.8-4.2C415.3,83.4,412,84.8,409.7,87.5z"/>
	<path class="st2" d="M458.2,108.6c0,2.1,0.3,3.5,0.9,4.3c0.6,0.8,1.8,1.2,3.5,1.2c1.1,0,2.1-0.1,3-0.2c0.8-0.2,1.8-0.5,3-0.9
		l-1.1,6.3c-1.8,0.8-3.8,1.1-6.1,1.1c-3.3,0-5.8-0.9-7.4-2.7c-1.6-1.8-2.4-4.6-2.4-8.3V59.6h6.6V108.6z"/>
	<path class="st2" d="M504.8,80.5c2.8,1.9,5,4.6,6.6,8.1l-6.2,3c-1.8-5.4-5.4-8.1-10.9-8.1c-4.1,0-7.3,1.4-9.6,4.1
		c-2.3,2.8-3.5,6.6-3.5,11.5s1.2,8.7,3.5,11.4c2.3,2.8,5.5,4.1,9.6,4.1c3.2,0,5.7-0.7,7.7-2.2c1.9-1.4,3.2-3.5,3.8-6.3l6.1,2.1
		c-1.4,3.8-3.6,6.8-6.6,8.9c-3,2.1-6.6,3.2-10.8,3.2c-6.2,0-11-1.9-14.6-5.7s-5.3-9-5.3-15.7s1.8-11.9,5.3-15.7s8.4-5.7,14.6-5.7
		C498.5,77.7,502,78.6,504.8,80.5z"/>
	<path class="st2" d="M560.4,114.4l-0.4,5.2c-1.5,0.5-3.2,0.8-4.9,0.8c-2.1,0-3.8-0.5-5-1.4s-2-2.5-2.3-4.7
		c-1.3,1.9-3.1,3.4-5.5,4.5c-2.4,1.1-5,1.6-7.7,1.6c-4.1,0-7.4-0.9-10-2.8c-2.6-1.9-3.9-4.6-3.9-8.2c0-3.1,1.4-5.8,4.1-8.1
		c2.7-2.3,6.7-3.8,11.9-4.7l10.9-1.8v-2.3c0-2.7-0.8-4.9-2.5-6.6c-1.7-1.6-4-2.5-7.1-2.5c-2.7,0-5.1,0.7-7.1,2
		c-2,1.3-3.5,3.3-4.6,5.8l-4.8-3.5c1.1-3.1,3.1-5.5,6.1-7.3s6.5-2.7,10.5-2.7c4.9,0,8.8,1.2,11.7,3.5c3,2.4,4.4,5.8,4.4,10.4v20.2
		c0,1,0.2,1.7,0.7,2.2c0.5,0.5,1.3,0.7,2.4,0.7S559.3,114.7,560.4,114.4z M543.6,112.2c2.5-1.6,3.7-3.8,3.7-6.4v-5.7l-9.2,1.7
		c-3.7,0.7-6.4,1.6-8.2,2.8s-2.7,2.8-2.7,4.7c0,1.7,0.7,3,2,3.9c1.3,0.9,3.1,1.4,5.5,1.4C538.2,114.6,541.2,113.8,543.6,112.2z
		 M547.8,58l-8,13.7h-5.3l6.2-13.7H547.8z"/>
	<path class="st2" d="M601.3,81.7c3,2.7,4.5,6.5,4.5,11.6v26.3h-6.6v-24c0-4.3-0.9-7.4-2.8-9.3c-1.8-1.9-4.3-2.9-7.3-2.9
		c-2.2,0-4.2,0.5-6.2,1.4c-1.9,1-3.5,2.5-4.7,4.7c-1.2,2.2-1.8,4.9-1.8,8.2v21.8h-6.6v-41h5.7l0.4,6.4c1.4-2.5,3.3-4.3,5.7-5.5
		c2.4-1.2,5.1-1.8,8.1-1.8C594.5,77.7,598.3,79,601.3,81.7z"/>
</g>
<g class="st1">
	<path class="st3" d="M346,231.4l19.8-54.2h13.5l19.8,54.2h-11.7L375,194.5l-2.5-8.2h-0.2l-2.3,8l-12.5,37H346z M357.7,218.2v-8.4
		h29.7v8.4H357.7z"/>
</g>
<g class="st1">
	<path class="st3" d="M451.6,216.5c-1,3.5-2.7,6.4-4.9,8.8c-2.2,2.4-4.9,4.1-8,5.3c-3.1,1.1-6.4,1.7-10.1,1.7
		c-5.4,0-10-1.1-13.9-3.4c-3.9-2.2-6.9-5.4-9-9.6c-2.1-4.2-3.2-9.1-3.2-14.9s1.1-10.8,3.2-14.9c2.1-4.2,5.1-7.4,9-9.6
		c3.9-2.2,8.5-3.4,13.7-3.4c3.7,0,7.1,0.5,10.1,1.5c3,1,5.6,2.6,7.7,4.7c2.1,2.1,3.7,4.7,4.6,7.8l-10.3,4.4c-0.9-3.3-2.4-5.6-4.3-7
		c-1.9-1.4-4.4-2.1-7.4-2.1c-3,0-5.5,0.7-7.8,2.1c-2.2,1.4-3.9,3.5-5.1,6.3c-1.2,2.8-1.8,6.2-1.8,10.2c0,4,0.6,7.4,1.7,10.2
		c1.1,2.8,2.8,4.9,5,6.3c2.2,1.4,4.9,2.1,8,2.1c3,0,5.5-0.8,7.7-2.4c2.2-1.6,3.7-4,4.6-7.2L451.6,216.5z"/>
</g>
<g class="st1">
	<path class="st3" d="M455.2,231.4l19.8-54.2h13.5l19.8,54.2h-11.7l-12.4-36.9l-2.5-8.2h-0.2l-2.3,8l-12.5,37H455.2z M466.9,218.2
		v-8.4h29.7v8.4H466.9z"/>
</g>
<g class="st1">
	<path class="st3" d="M552.2,177.2v9.1h-18.1v45.1h-11.3v-45.1h-18.2v-9.1H552.2z"/>
	<path class="st3" d="M561.5,231.4v-54.2h40.6v9.1h-29.3v13.5h23.1v8.7h-23.1v13.8h30.5v9.1H561.5z"/>
	<path class="st3" d="M660,177.2v54.2h-13l-19-31.8l-4.7-8.9h-0.1l0.3,9.4v31.4h-10.2v-54.2h12.9l19,31.8l4.7,8.9h0.2l-0.3-9.4
		v-31.4H660z"/>
	<path class="st3" d="M668,231.4l19.8-54.2h13.5l19.8,54.2h-11.7L697,194.5l-2.5-8.2h-0.2l-2.3,8l-12.5,37H668z M679.7,218.2v-8.4
		h29.7v8.4H679.7z"/>
	<path class="st3" d="M775.7,177.2v54.2h-13l-19-31.8l-4.7-8.9H739l0.3,9.4v31.4h-10.2v-54.2h12.9l19,31.8l4.7,8.9h0.2l-0.3-9.4
		v-31.4H775.7z"/>
	<path class="st3" d="M812.1,232.2c-5,0-9.3-1.1-13.1-3.3c-3.7-2.2-6.7-5.4-8.7-9.5c-2.1-4.2-3.1-9.2-3.1-15c0-5.8,1.1-10.8,3.3-15
		c2.2-4.2,5.3-7.4,9.3-9.6c4-2.2,8.7-3.4,14-3.4c5.9,0,10.6,1.1,14.2,3.2c3.6,2.2,6.5,5.5,8.6,10.1l-10.5,4.5
		c-0.9-2.9-2.4-5-4.5-6.4c-2.1-1.4-4.7-2.1-7.8-2.1c-3.1,0-5.7,0.7-8,2.2c-2.2,1.5-4,3.6-5.2,6.3c-1.2,2.8-1.8,6.1-1.8,10.1
		c0,4.1,0.6,7.6,1.7,10.4c1.1,2.8,2.9,4.9,5.1,6.3c2.3,1.4,5.1,2.1,8.4,2.1c1.8,0,3.5-0.2,5-0.7c1.6-0.4,2.9-1.1,4.1-2
		c1.1-0.9,2.1-2,2.7-3.4c0.7-1.4,1-3,1-4.8v-1.2h-14.2v-8.3h24v28.6h-8l-0.8-11.8l2,1.4c-1.2,3.6-3.3,6.4-6.4,8.3
		S816.7,232.2,812.1,232.2z"/>
	<path class="st3" d="M872.6,176.4c5.4,0,10,1.1,13.9,3.4c3.9,2.2,6.9,5.4,9,9.6c2.1,4.2,3.2,9.1,3.2,14.9s-1.1,10.8-3.2,14.9
		c-2.1,4.2-5.1,7.4-9,9.6c-3.9,2.2-8.5,3.4-13.9,3.4c-5.4,0-10-1.1-13.9-3.4c-3.9-2.2-6.9-5.4-9-9.6c-2.1-4.2-3.2-9.1-3.2-14.9
		s1.1-10.8,3.2-14.9c2.1-4.2,5.1-7.4,9-9.6C862.6,177.5,867.2,176.4,872.6,176.4z M872.6,185.7c-3,0-5.6,0.7-7.8,2.1
		c-2.2,1.4-3.8,3.5-4.9,6.3c-1.1,2.8-1.7,6.2-1.7,10.2s0.6,7.4,1.7,10.2c1.1,2.8,2.8,4.9,4.9,6.3c2.2,1.4,4.7,2.1,7.8,2.1
		c3,0,5.6-0.7,7.7-2.1c2.1-1.4,3.8-3.5,4.9-6.3c1.1-2.8,1.7-6.2,1.7-10.2s-0.6-7.4-1.7-10.2c-1.1-2.8-2.7-4.9-4.9-6.3
		C878.2,186.4,875.6,185.7,872.6,185.7z"/>
</g>
</svg>
