<?xml version="1.0" encoding="utf-8"?>
<!-- Generator: Adobe Illustrator 23.0.3, SVG Export Plug-In . SVG Version: 6.00 Build 0)  -->
<svg version="1.1" id="Layer_1" xmlns="http://www.w3.org/2000/svg" xmlns:xlink="http://www.w3.org/1999/xlink" x="0px" y="0px"
	 viewBox="0 0 430.8 140.6" style="enable-background:new 0 0 430.8 140.6;" xml:space="preserve">
<style type="text/css">
	.st0{fill:#FFFFFF;}
	.st1{enable-background:new    ;}
	.st2{fill:#30EF9D;}
</style>
<title>Acatenango</title>
<g>
	<path class="st0" d="M121.8,78.5c-3.7-1.8-7.2-3.1-10.4-5c-5.6-3.4-11-7.1-16.4-10.8c-2.1-1.4-3.8-1.5-5.6,0.5
		c-0.5,0.6-1.7,1.2-2.2,1c-2.4-1-3.7,0.4-5.6,2.4l15.7,15.5l-0.2,0.4c-1.5-0.9-3-2-4.4-3.1c-7.7-7-15.3-13.9-22.8-21
		c-4-3.7-5-3.7-9,0.2c-1.2,1.1-2.6,2.6-4,2.7c-2.3,0.2-4.5-0.2-6.5-1.2c-2.5-1.5-3.8-1.2-5.7,0.8c-9.1,9.8-21.5,15.9-34.9,16.8
		C5.3,64.1,12.6,37.9,30.4,24C48.6,9.8,75,8.1,95.3,20C113.1,30.5,126.7,54.8,121.8,78.5z"/>
	<path class="st0" d="M17.7,100.1c25.9-8.5,68.4-6.8,96.4-0.8c-10.4,15.6-24.6,24.8-43.1,26.4C48.7,127.5,31.1,118.6,17.7,100.1z"/>
	<path class="st0" d="M16.1,97.2l-2.1-4c34.6-10.2,68.9-8,103.5-1.2c-0.4,3.1-1.4,4.2-4.9,3.8c-14.5-1.8-29.1-3.7-43.7-4.5
		C51.1,90.3,33.3,92.3,16.1,97.2z"/>
</g>
<g class="st1">
	<path class="st2" d="M178.3,63.3h-3.5l-9.6-25.3h3.3l6.4,17.5l1.6,5l1.6-5l6.4-17.5h3.3L178.3,63.3z"/>
</g>
<g class="st1">
	<path class="st2" d="M205.6,46.4c1.6,1.8,2.5,4.2,2.5,7.3s-0.8,5.6-2.5,7.3c-1.6,1.8-3.9,2.6-6.8,2.6c-2.9,0-5.1-0.9-6.8-2.6
		c-1.6-1.8-2.5-4.2-2.5-7.3s0.8-5.6,2.5-7.3c1.6-1.8,3.9-2.6,6.8-2.6C201.7,43.8,203.9,44.7,205.6,46.4z M194.2,48.4
		c-1.1,1.3-1.6,3.1-1.6,5.4c0,2.3,0.5,4.1,1.6,5.4c1.1,1.3,2.6,2,4.6,2c1.9,0,3.5-0.7,4.6-2c1.1-1.3,1.6-3.1,1.6-5.4
		c0-2.3-0.5-4.1-1.6-5.4c-1.1-1.3-2.6-2-4.6-2C196.9,46.4,195.3,47.1,194.2,48.4z"/>
	<path class="st2" d="M216.9,58.2c0,1,0.1,1.6,0.4,2c0.3,0.4,0.8,0.6,1.6,0.6c0.5,0,1,0,1.4-0.1c0.4-0.1,0.9-0.2,1.4-0.4l-0.5,2.9
		c-0.8,0.4-1.8,0.5-2.8,0.5c-1.6,0-2.7-0.4-3.5-1.3c-0.8-0.8-1.1-2.1-1.1-3.9V35.4h3.1V58.2z"/>
	<path class="st2" d="M238.6,45.1c1.3,0.9,2.3,2.1,3.1,3.8l-2.9,1.4c-0.8-2.5-2.5-3.8-5.1-3.8c-1.9,0-3.4,0.6-4.5,1.9
		c-1.1,1.3-1.6,3.1-1.6,5.3c0,2.3,0.5,4.1,1.6,5.3c1.1,1.3,2.6,1.9,4.5,1.9c1.5,0,2.7-0.3,3.6-1c0.9-0.7,1.5-1.7,1.8-2.9l2.8,1
		c-0.7,1.8-1.7,3.2-3.1,4.2c-1.4,1-3.1,1.5-5.1,1.5c-2.9,0-5.1-0.9-6.8-2.6c-1.6-1.8-2.5-4.2-2.5-7.3s0.8-5.6,2.5-7.3
		c1.6-1.8,3.9-2.6,6.8-2.6C235.7,43.8,237.3,44.2,238.6,45.1z"/>
	<path class="st2" d="M264.5,60.9l-0.2,2.4c-0.7,0.3-1.5,0.4-2.3,0.4c-1,0-1.8-0.2-2.4-0.7c-0.6-0.4-0.9-1.2-1.1-2.2
		c-0.6,0.9-1.4,1.6-2.6,2.1c-1.1,0.5-2.3,0.7-3.6,0.7c-1.9,0-3.4-0.4-4.7-1.3c-1.2-0.9-1.8-2.1-1.8-3.8c0-1.5,0.6-2.7,1.9-3.8
		c1.3-1.1,3.1-1.8,5.6-2.2l5.1-0.8v-1.1c0-1.3-0.4-2.3-1.2-3.1c-0.8-0.8-1.9-1.1-3.3-1.1c-1.3,0-2.4,0.3-3.3,0.9
		c-0.9,0.6-1.7,1.5-2.2,2.7l-2.3-1.6c0.5-1.4,1.5-2.6,2.9-3.4c1.4-0.8,3-1.3,4.9-1.3c2.3,0,4.1,0.5,5.5,1.6c1.4,1.1,2.1,2.7,2.1,4.9
		v9.4c0,0.5,0.1,0.8,0.3,1c0.2,0.2,0.6,0.3,1.1,0.3S264,61,264.5,60.9z M256.7,59.9c1.2-0.8,1.7-1.8,1.7-3v-2.6l-4.3,0.8
		c-1.7,0.3-3,0.7-3.8,1.3c-0.8,0.6-1.3,1.3-1.3,2.2c0,0.8,0.3,1.4,0.9,1.8c0.6,0.4,1.5,0.6,2.6,0.6C254.2,61,255.6,60.6,256.7,59.9z
		 M258.7,34.6l-3.8,6.4h-2.5l2.9-6.4H258.7z"/>
	<path class="st2" d="M283.6,45.7c1.4,1.3,2.1,3.1,2.1,5.4v12.3h-3.1V52.1c0-2-0.4-3.4-1.3-4.3c-0.9-0.9-2-1.3-3.4-1.3
		c-1,0-2,0.2-2.9,0.7c-0.9,0.4-1.6,1.2-2.2,2.2c-0.6,1-0.9,2.3-0.9,3.8v10.2H269V44.2h2.7l0.2,3c0.6-1.1,1.5-2,2.6-2.5
		c1.1-0.5,2.4-0.8,3.8-0.8C280.5,43.8,282.2,44.4,283.6,45.7z"/>
</g>
<g class="st1">
	<path class="st0" d="M164.6,115.5l9.2-25.3h6.3l9.2,25.3h-5.5l-5.8-17.2l-1.1-3.8h-0.1l-1.1,3.8l-5.8,17.3H164.6z M170,109.3v-3.9
		h13.9v3.9H170z"/>
</g>
<g class="st1">
	<path class="st0" d="M213.8,108.5c-0.5,1.6-1.3,3-2.3,4.1c-1,1.1-2.3,1.9-3.7,2.5s-3,0.8-4.7,0.8c-2.5,0-4.7-0.5-6.5-1.6
		c-1.8-1-3.2-2.5-4.2-4.5c-1-1.9-1.5-4.3-1.5-7c0-2.7,0.5-5,1.5-7c1-1.9,2.4-3.4,4.2-4.5c1.8-1,4-1.6,6.4-1.6c1.7,0,3.3,0.2,4.7,0.7
		c1.4,0.5,2.6,1.2,3.6,2.2c1,1,1.7,2.2,2.2,3.7l-4.8,2c-0.4-1.5-1.1-2.6-2-3.3c-0.9-0.7-2-1-3.4-1c-1.4,0-2.6,0.3-3.6,1
		c-1,0.7-1.8,1.6-2.4,2.9c-0.6,1.3-0.8,2.9-0.8,4.8c0,1.9,0.3,3.4,0.8,4.7c0.5,1.3,1.3,2.3,2.3,2.9c1,0.7,2.3,1,3.8,1
		c1.4,0,2.6-0.4,3.6-1.1c1-0.7,1.7-1.9,2.1-3.4L213.8,108.5z"/>
</g>
<g class="st1">
	<path class="st0" d="M215.5,115.5l9.2-25.3h6.3l9.2,25.3h-5.5L229,98.3l-1.1-3.8h-0.1l-1.1,3.8l-5.8,17.3H215.5z M220.9,109.3v-3.9
		h13.9v3.9H220.9z"/>
</g>
<g class="st1">
	<path class="st0" d="M260.7,90.2v4.2h-8.5v21H247v-21h-8.5v-4.2H260.7z"/>
	<path class="st0" d="M265.1,115.5V90.2h19v4.2h-13.7v6.3h10.8v4.1h-10.8v6.4h14.2v4.2H265.1z"/>
	<path class="st0" d="M311,90.2v25.3h-6l-8.8-14.9l-2.2-4.1h0l0.2,4.4v14.6h-4.7V90.2h6l8.8,14.8l2.2,4.2h0.1l-0.2-4.4V90.2H311z"/>
	<path class="st0" d="M314.8,115.5l9.2-25.3h6.3l9.2,25.3h-5.5l-5.8-17.2l-1.1-3.8h-0.1l-1.1,3.8l-5.8,17.3H314.8z M320.2,109.3
		v-3.9h13.9v3.9H320.2z"/>
	<path class="st0" d="M365,90.2v25.3h-6l-8.8-14.9l-2.2-4.1h0l0.2,4.4v14.6h-4.7V90.2h6l8.8,14.8l2.2,4.2h0.1l-0.2-4.4V90.2H365z"/>
	<path class="st0" d="M382,115.9c-2.3,0-4.4-0.5-6.1-1.5c-1.7-1-3.1-2.5-4.1-4.4c-1-1.9-1.5-4.3-1.5-7c0-2.7,0.5-5,1.5-7
		c1-2,2.5-3.5,4.3-4.5c1.9-1,4-1.6,6.5-1.6c2.7,0,4.9,0.5,6.6,1.5c1.7,1,3,2.6,4,4.7l-4.9,2.1c-0.4-1.4-1.1-2.4-2.1-3
		c-1-0.7-2.2-1-3.6-1c-1.4,0-2.7,0.3-3.7,1s-1.9,1.7-2.4,2.9s-0.8,2.9-0.8,4.7c0,1.9,0.3,3.5,0.8,4.8c0.5,1.3,1.3,2.3,2.4,2.9
		c1.1,0.7,2.4,1,3.9,1c0.8,0,1.6-0.1,2.4-0.3c0.7-0.2,1.4-0.5,1.9-0.9c0.5-0.4,1-0.9,1.3-1.6c0.3-0.6,0.5-1.4,0.5-2.2V106h-6.6v-3.9
		h11.2v13.3h-3.7l-0.4-5.5l0.9,0.7c-0.6,1.7-1.6,3-3,3.9C385.9,115.4,384.1,115.9,382,115.9z"/>
	<path class="st0" d="M410.2,89.8c2.5,0,4.7,0.5,6.5,1.6c1.8,1,3.2,2.5,4.2,4.5c1,1.9,1.5,4.3,1.5,7c0,2.7-0.5,5-1.5,7
		c-1,1.9-2.4,3.4-4.2,4.5c-1.8,1-4,1.6-6.5,1.6s-4.7-0.5-6.5-1.6s-3.2-2.5-4.2-4.5c-1-1.9-1.5-4.3-1.5-7c0-2.7,0.5-5,1.5-7
		c1-1.9,2.4-3.4,4.2-4.5S407.7,89.8,410.2,89.8z M410.2,94.2c-1.4,0-2.6,0.3-3.6,1c-1,0.7-1.8,1.6-2.3,2.9s-0.8,2.9-0.8,4.7
		s0.3,3.4,0.8,4.7s1.3,2.3,2.3,2.9c1,0.7,2.2,1,3.6,1s2.6-0.3,3.6-1c1-0.7,1.8-1.6,2.3-2.9c0.5-1.3,0.8-2.9,0.8-4.7
		s-0.3-3.4-0.8-4.7c-0.5-1.3-1.3-2.3-2.3-2.9C412.8,94.5,411.6,94.2,410.2,94.2z"/>
</g>
</svg>
