<?xml version="1.0" encoding="utf-8"?>
<!-- Generator: Adobe Illustrator 23.0.3, SVG Export Plug-In . SVG Version: 6.00 Build 0)  -->
<svg version="1.1" id="Layer_1" xmlns="http://www.w3.org/2000/svg" xmlns:xlink="http://www.w3.org/1999/xlink" x="0px" y="0px"
	 viewBox="0 0 148.6 200.6" style="enable-background:new 0 0 148.6 200.6;" xml:space="preserve">
<style type="text/css">
	.st0{fill:#FFFFFF;}
	.st1{fill:none;stroke:#FFFFFF;stroke-width:4.05;stroke-miterlimit:10;}
	.st2{fill:none;stroke:#FFFFFF;stroke-width:0.68;stroke-miterlimit:10;}
	.st3{enable-background:new    ;}
	.st4{fill:#30EF9D;}
</style>
<title>Acatenango logo blanco vertical menu</title>
<path class="st0" d="M19.4,72.8c0,0,19.2,2.2,35.3-17.9c1.1-0.9,2.7-0.9,3.8,0c2.1,1.5,6.3,4.9,10.7-0.7s7.4-2.7,8.4-1.3
	s26.6,26.4,34.1,28.2c0,0-20.8-13.9-21.8-19.4c0-0.9,0.2-3.3,5-2.3c1.7,0.5,3.2-2.1,3.2-2.1s1.3-2,4.4,0.4s23.1,16.8,26.1,14.7
	c3.1-2.1,4-62.4-56.6-63.1C12.5,13.7,19.4,72.8,19.4,72.8z"/>
<path class="st1" d="M25.4,90.9c0,0,44.3-18.1,97.4-0.5"/>
<path class="st0" d="M28,95.3c0,0,19.5,25.9,45.7,24.5s37-11.9,46.8-24.5C120.5,95.3,80.4,81.5,28,95.3z"/>
<path class="st2" d="M96.4,69.6c0,0,2.1-0.6,0-5.1s6.8-0.6,6.8-0.6s7.6,2.4,7.8-1.6"/>
<g class="st3">
	<path class="st4" d="M49.2,159.7h-1.8l-5-13.2h1.7l3.4,9.1l0.8,2.6l0.8-2.6l3.4-9.1h1.7L49.2,159.7z"/>
</g>
<g class="st3">
	<path class="st4" d="M63.5,150.8c0.9,0.9,1.3,2.2,1.3,3.8s-0.4,2.9-1.3,3.8c-0.9,0.9-2,1.4-3.5,1.4c-1.5,0-2.7-0.5-3.6-1.4
		c-0.9-0.9-1.3-2.2-1.3-3.8s0.4-2.9,1.3-3.8c0.9-0.9,2-1.4,3.6-1.4C61.4,149.5,62.6,149.9,63.5,150.8z M57.5,151.9
		c-0.6,0.7-0.9,1.6-0.9,2.8s0.3,2.1,0.9,2.8c0.6,0.7,1.4,1,2.4,1c1,0,1.8-0.3,2.4-1c0.6-0.7,0.9-1.6,0.9-2.8s-0.3-2.1-0.9-2.8
		c-0.6-0.7-1.4-1-2.4-1C58.9,150.8,58.1,151.2,57.5,151.9z"/>
	<path class="st4" d="M69.4,157c0,0.5,0.1,0.9,0.2,1s0.4,0.3,0.9,0.3c0.3,0,0.5,0,0.7-0.1c0.2,0,0.5-0.1,0.7-0.2l-0.3,1.5
		c-0.4,0.2-0.9,0.3-1.5,0.3c-0.8,0-1.4-0.2-1.8-0.7c-0.4-0.4-0.6-1.1-0.6-2v-12.1h1.6V157z"/>
	<path class="st4" d="M80.7,150.2c0.7,0.5,1.2,1.1,1.6,2l-1.5,0.7c-0.4-1.3-1.3-2-2.7-2c-1,0-1.8,0.3-2.4,1
		c-0.6,0.7-0.9,1.6-0.9,2.8s0.3,2.1,0.9,2.8c0.6,0.7,1.4,1,2.4,1c0.8,0,1.4-0.2,1.9-0.5c0.5-0.4,0.8-0.9,0.9-1.5l1.5,0.5
		c-0.3,0.9-0.9,1.7-1.6,2.2c-0.7,0.5-1.6,0.8-2.6,0.8c-1.5,0-2.7-0.5-3.6-1.4c-0.9-0.9-1.3-2.2-1.3-3.8s0.4-2.9,1.3-3.8
		c0.9-0.9,2-1.4,3.6-1.4C79.2,149.5,80,149.7,80.7,150.2z"/>
	<path class="st4" d="M94.3,158.4l-0.1,1.3c-0.4,0.1-0.8,0.2-1.2,0.2c-0.5,0-0.9-0.1-1.2-0.3s-0.5-0.6-0.6-1.1
		c-0.3,0.5-0.8,0.8-1.3,1.1c-0.6,0.3-1.2,0.4-1.9,0.4c-1,0-1.8-0.2-2.4-0.7c-0.6-0.5-1-1.1-1-2c0-0.8,0.3-1.4,1-2
		c0.7-0.6,1.6-0.9,2.9-1.1l2.7-0.4v-0.6c0-0.7-0.2-1.2-0.6-1.6c-0.4-0.4-1-0.6-1.7-0.6c-0.7,0-1.2,0.2-1.7,0.5
		c-0.5,0.3-0.9,0.8-1.1,1.4l-1.2-0.9c0.3-0.7,0.8-1.3,1.5-1.8c0.7-0.4,1.6-0.7,2.5-0.7c1.2,0,2.1,0.3,2.9,0.9
		c0.7,0.6,1.1,1.4,1.1,2.5v4.9c0,0.2,0.1,0.4,0.2,0.5s0.3,0.2,0.6,0.2C93.7,158.5,94,158.5,94.3,158.4z M90.2,157.9
		c0.6-0.4,0.9-0.9,0.9-1.6v-1.4l-2.2,0.4c-0.9,0.2-1.6,0.4-2,0.7c-0.4,0.3-0.7,0.7-0.7,1.1c0,0.4,0.2,0.7,0.5,1
		c0.3,0.2,0.8,0.3,1.3,0.3C88.9,158.5,89.6,158.3,90.2,157.9z M91.2,144.7l-2,3.3h-1.3l1.5-3.3H91.2z"/>
	<path class="st4" d="M104.2,150.5c0.7,0.7,1.1,1.6,1.1,2.8v6.4h-1.6v-5.8c0-1-0.2-1.8-0.7-2.3s-1-0.7-1.8-0.7c-0.5,0-1,0.1-1.5,0.3
		s-0.8,0.6-1.1,1.1c-0.3,0.5-0.5,1.2-0.5,2v5.3h-1.6v-10H98l0.1,1.6c0.3-0.6,0.8-1,1.4-1.3c0.6-0.3,1.2-0.4,2-0.4
		C102.6,149.5,103.5,149.8,104.2,150.5z"/>
</g>
<g class="st3">
	<path class="st0" d="M7.1,188.8l4.8-13.2h3.3l4.8,13.2h-2.9l-3-9l-0.6-2h0l-0.6,2l-3,9H7.1z M9.9,185.5v-2h7.2v2H9.9z"/>
</g>
<g class="st3">
	<path class="st0" d="M32.8,185.1c-0.3,0.9-0.7,1.6-1.2,2.1c-0.5,0.6-1.2,1-1.9,1.3c-0.7,0.3-1.6,0.4-2.5,0.4
		c-1.3,0-2.4-0.3-3.4-0.8s-1.7-1.3-2.2-2.3c-0.5-1-0.8-2.2-0.8-3.6s0.3-2.6,0.8-3.6c0.5-1,1.2-1.8,2.2-2.3s2.1-0.8,3.4-0.8
		c0.9,0,1.7,0.1,2.5,0.4c0.7,0.2,1.4,0.6,1.9,1.1c0.5,0.5,0.9,1.1,1.1,1.9l-2.5,1.1c-0.2-0.8-0.6-1.4-1-1.7s-1.1-0.5-1.8-0.5
		c-0.7,0-1.4,0.2-1.9,0.5s-1,0.9-1.2,1.5s-0.4,1.5-0.4,2.5c0,1,0.1,1.8,0.4,2.5c0.3,0.7,0.7,1.2,1.2,1.5c0.5,0.3,1.2,0.5,2,0.5
		c0.7,0,1.3-0.2,1.9-0.6c0.5-0.4,0.9-1,1.1-1.8L32.8,185.1z"/>
</g>
<g class="st3">
	<path class="st0" d="M33.7,188.8l4.8-13.2h3.3l4.8,13.2h-2.9l-3-9l-0.6-2h0l-0.6,2l-3,9H33.7z M36.5,185.5v-2h7.2v2H36.5z"/>
</g>
<g class="st3">
	<path class="st0" d="M57.3,175.6v2.2h-4.4v11h-2.8v-11h-4.4v-2.2H57.3z"/>
	<path class="st0" d="M59.6,188.8v-13.2h9.9v2.2h-7.1v3.3H68v2.1h-5.6v3.4h7.4v2.2H59.6z"/>
	<path class="st0" d="M83.6,175.6v13.2h-3.2l-4.6-7.8l-1.1-2.2h0l0.1,2.3v7.6h-2.5v-13.2h3.1l4.6,7.7l1.1,2.2h0l-0.1-2.3v-7.6H83.6z
		"/>
	<path class="st0" d="M85.6,188.8l4.8-13.2h3.3l4.8,13.2h-2.9l-3-9l-0.6-2h0l-0.6,2l-3,9H85.6z M88.4,185.5v-2h7.2v2H88.4z"/>
	<path class="st0" d="M111.8,175.6v13.2h-3.2L104,181l-1.1-2.2h0l0.1,2.3v7.6h-2.5v-13.2h3.1l4.6,7.7l1.1,2.2h0l-0.1-2.3v-7.6H111.8
		z"/>
	<path class="st0" d="M120.7,189c-1.2,0-2.3-0.3-3.2-0.8c-0.9-0.5-1.6-1.3-2.1-2.3s-0.8-2.2-0.8-3.7c0-1.4,0.3-2.6,0.8-3.7
		c0.5-1,1.3-1.8,2.3-2.3c1-0.5,2.1-0.8,3.4-0.8c1.4,0,2.6,0.3,3.5,0.8c0.9,0.5,1.6,1.3,2.1,2.5l-2.6,1.1c-0.2-0.7-0.6-1.2-1.1-1.6
		c-0.5-0.3-1.1-0.5-1.9-0.5s-1.4,0.2-1.9,0.5c-0.5,0.4-1,0.9-1.3,1.5c-0.3,0.7-0.4,1.5-0.4,2.5c0,1,0.1,1.8,0.4,2.5
		c0.3,0.7,0.7,1.2,1.2,1.5c0.6,0.3,1.2,0.5,2,0.5c0.4,0,0.9-0.1,1.2-0.2s0.7-0.3,1-0.5c0.3-0.2,0.5-0.5,0.7-0.8
		c0.2-0.3,0.2-0.7,0.2-1.2v-0.3h-3.5v-2h5.8v7h-1.9l-0.2-2.9l0.5,0.3c-0.3,0.9-0.8,1.6-1.5,2S121.8,189,120.7,189z"/>
	<path class="st0" d="M135.4,175.4c1.3,0,2.4,0.3,3.4,0.8c0.9,0.5,1.7,1.3,2.2,2.3c0.5,1,0.8,2.2,0.8,3.6s-0.3,2.6-0.8,3.6
		c-0.5,1-1.2,1.8-2.2,2.3c-0.9,0.5-2.1,0.8-3.4,0.8s-2.4-0.3-3.4-0.8s-1.7-1.3-2.2-2.3c-0.5-1-0.8-2.2-0.8-3.6s0.3-2.6,0.8-3.6
		c0.5-1,1.2-1.8,2.2-2.3S134.1,175.4,135.4,175.4z M135.4,177.6c-0.7,0-1.4,0.2-1.9,0.5c-0.5,0.3-0.9,0.9-1.2,1.5
		c-0.3,0.7-0.4,1.5-0.4,2.5c0,1,0.1,1.8,0.4,2.5c0.3,0.7,0.7,1.2,1.2,1.5c0.5,0.3,1.2,0.5,1.9,0.5s1.4-0.2,1.9-0.5
		c0.5-0.3,0.9-0.9,1.2-1.5c0.3-0.7,0.4-1.5,0.4-2.5c0-1-0.1-1.8-0.4-2.5c-0.3-0.7-0.7-1.2-1.2-1.5
		C136.8,177.8,136.1,177.6,135.4,177.6z"/>
</g>
</svg>
