<svg xmlns="http://www.w3.org/2000/svg" viewBox="0 0 907.59 265.44"><defs><style>.a{fill:#282828;}.b,.d{font-size:82.08px;}.b{fill:#2cdd8c;font-family:WorkSans-Regular, Work Sans;}.c{letter-spacing:-0.05em;}.d{fill:#222;font-family:WorkSans-SemiBold, Work Sans;font-weight:600;}.e{letter-spacing:-0.02em;}.f{letter-spacing:-0.08em;}.g{letter-spacing:0em;}</style></defs><title>Acatenango logo home</title><path class="a" d="M254.27,152c-7.92-3.76-15.5-6.61-22.3-10.75-12-7.26-23.5-15.2-35.09-23.06-4.46-3-8.13-3.18-11.93,1-1.09,1.22-3.62,2.56-4.75,2.08-5.27-2.19-8,.89-11.93,5.13l33.57,33.35-.45.8c-3.14-2.19-6.58-4.06-9.4-6.62q-24.66-22.33-49.06-45c-8.45-7.86-10.56-7.86-19.15.47-2.5,2.43-5.56,5.63-8.58,5.88-4.63.38-10.13-.35-14-2.68-5.26-3.14-8.25-2.63-12.17,1.76-18.55,20.79-47.17,34.41-74.8,36C4.48,121.21,20.15,65,58.32,35.2,97.37,4.72,153.87,1.07,197.46,26.7,235.6,49.12,264.69,101.21,254.27,152Z"/><path class="a" d="M31.23,198.36c55.56-18.14,146.62-14.58,206.64-1.79-22.25,33.48-52.71,53.24-92.36,56.57C97.57,257.16,59.84,238,31.23,198.36Z"/><path class="a" d="M27.8,192.08l-4.53-8.55C97.44,161.79,171,166.39,245.09,181c-.93,6.65-2.93,9.12-10.55,8.17-31.14-3.87-62.34-7.94-93.64-9.58C103,177.58,65.28,181.23,27.8,192.08Z"/><text class="b" transform="translate(345.06 119.56)"><tspan class="c">V</tspan><tspan x="49.41" y="0">olcán</tspan></text><text class="d" transform="translate(345.06 231.4)"><tspan class="e">A</tspan><tspan x="53.11" y="0">C</tspan><tspan class="f" x="109.17" y="0">A</tspan><tspan class="g" x="157.26" y="0">TENANGO</tspan></text></svg>