<svg xmlns="http://www.w3.org/2000/svg" viewBox="0 0 148.58 200.63"><defs><style>.a,.f{fill:#fff;}.b,.c{fill:none;stroke:#fff;stroke-miterlimit:10;}.b{stroke-width:4.05px;}.c{stroke-width:0.68px;}.d,.f{font-size:20px;}.d{fill:#30ef9d;font-family:WorkSans-Regular, Work Sans;}.e{letter-spacing:-0.05em;}.f{font-family:WorkSans-SemiBold, Work Sans;font-weight:600;}.g{letter-spacing:-0.02em;}.h{letter-spacing:-0.09em;}.i{letter-spacing:0em;}</style></defs><title>Acatenango logo blanco vertical menu</title><path class="a" d="M19.38,72.83s19.16,2.24,35.34-17.92a3,3,0,0,1,3.82,0c2.14,1.52,6.33,4.94,10.72-.67s7.4-2.68,8.37-1.32,26.63,26.41,34.11,28.23c0,0-20.81-13.94-21.82-19.39,0-.9.2-3.33,5-2.34,1.71.45,3.15-2.06,3.15-2.06s1.34-2,4.4.44,23.08,16.8,26.14,14.74,4-62.44-56.56-63.12C12.5,13.68,19.38,72.83,19.38,72.83Z"/><path class="b" d="M25.41,90.93s44.25-18.14,97.44-.52"/><path class="a" d="M28,95.26s19.47,25.87,45.74,24.47,37-11.89,46.78-24.47C120.54,95.26,80.45,81.51,28,95.26Z"/><path class="c" d="M96.38,69.59s2.11-.6,0-5.13,6.79-.6,6.79-.6,7.55,2.43,7.85-1.58"/><text class="d" transform="translate(41.8 159.67)"><tspan class="e">V</tspan><tspan x="12.04" y="0">olcán</tspan></text><text class="f" transform="translate(6.48 193.29)"><tspan class="g">A</tspan><tspan x="12.94" y="0">C</tspan><tspan class="h" x="26.6" y="0">A</tspan><tspan class="i" x="38.32" y="0">TENANGO</tspan></text></svg>